<mxfile host="app.diagrams.net" modified="2023-07-28T02:28:37.932Z" agent="Mozilla/5.0 (Windows NT 10.0; Win64; x64) AppleWebKit/537.36 (KHTML, like Gecko) Chrome/114.0.0.0 Safari/537.36" etag="g817ksumrx-gLGoh468B" version="21.6.5" type="device">
  <diagram id="C5RBs43oDa-KdzZeNtuy" name="Page-1">
    <mxGraphModel dx="1434" dy="756" grid="1" gridSize="10" guides="1" tooltips="1" connect="1" arrows="1" fold="1" page="1" pageScale="1" pageWidth="827" pageHeight="1169" math="0" shadow="0">
      <root>
        <mxCell id="WIyWlLk6GJQsqaUBKTNV-0" />
        <mxCell id="WIyWlLk6GJQsqaUBKTNV-1" parent="WIyWlLk6GJQsqaUBKTNV-0" />
        <mxCell id="WIyWlLk6GJQsqaUBKTNV-2" value="" style="rounded=0;html=1;jettySize=auto;orthogonalLoop=1;fontSize=11;endArrow=block;endFill=0;endSize=8;strokeWidth=1;shadow=0;labelBackgroundColor=none;edgeStyle=orthogonalEdgeStyle;exitX=1;exitY=0.5;exitDx=0;exitDy=0;entryX=0;entryY=0.5;entryDx=0;entryDy=0;" parent="WIyWlLk6GJQsqaUBKTNV-1" edge="1" target="LgZh5UOVkd5tFv0mdFSw-1" source="WIyWlLk6GJQsqaUBKTNV-3">
          <mxGeometry relative="1" as="geometry">
            <mxPoint x="160" y="172" as="sourcePoint" />
            <mxPoint x="230" y="162" as="targetPoint" />
            <Array as="points">
              <mxPoint x="160" y="90" />
              <mxPoint x="160" y="90" />
            </Array>
          </mxGeometry>
        </mxCell>
        <mxCell id="WIyWlLk6GJQsqaUBKTNV-3" value="dataset(txt)" style="rounded=1;whiteSpace=wrap;html=1;fontSize=12;glass=0;strokeWidth=1;shadow=0;" parent="WIyWlLk6GJQsqaUBKTNV-1" vertex="1">
          <mxGeometry x="30" y="70" width="120" height="40" as="geometry" />
        </mxCell>
        <mxCell id="LgZh5UOVkd5tFv0mdFSw-2" value="" style="edgeStyle=orthogonalEdgeStyle;rounded=0;orthogonalLoop=1;jettySize=auto;html=1;" edge="1" parent="WIyWlLk6GJQsqaUBKTNV-1" source="gK3jX9xH8F0dARAaS51u-2" target="gK3jX9xH8F0dARAaS51u-3">
          <mxGeometry relative="1" as="geometry" />
        </mxCell>
        <mxCell id="gK3jX9xH8F0dARAaS51u-2" value="SimpleImputer()" style="rounded=1;whiteSpace=wrap;html=1;fontSize=12;glass=0;strokeWidth=1;shadow=0;" parent="WIyWlLk6GJQsqaUBKTNV-1" vertex="1">
          <mxGeometry x="230" y="140" width="120" height="40" as="geometry" />
        </mxCell>
        <mxCell id="gK3jX9xH8F0dARAaS51u-3" value="StandardScaler()" style="rounded=1;whiteSpace=wrap;html=1;fontSize=12;glass=0;strokeWidth=1;shadow=0;" parent="WIyWlLk6GJQsqaUBKTNV-1" vertex="1">
          <mxGeometry x="230" y="210" width="120" height="40" as="geometry" />
        </mxCell>
        <mxCell id="gK3jX9xH8F0dARAaS51u-4" value="" style="endArrow=classic;html=1;rounded=0;exitX=0.5;exitY=1;exitDx=0;exitDy=0;entryX=0.5;entryY=0;entryDx=0;entryDy=0;" parent="WIyWlLk6GJQsqaUBKTNV-1" source="gK3jX9xH8F0dARAaS51u-2" target="gK3jX9xH8F0dARAaS51u-3" edge="1">
          <mxGeometry width="50" height="50" relative="1" as="geometry">
            <mxPoint x="320" y="340" as="sourcePoint" />
            <mxPoint x="370" y="290" as="targetPoint" />
          </mxGeometry>
        </mxCell>
        <mxCell id="gK3jX9xH8F0dARAaS51u-5" value="" style="swimlane;startSize=0;dashed=1;strokeWidth=3;" parent="WIyWlLk6GJQsqaUBKTNV-1" vertex="1">
          <mxGeometry x="200" y="60" width="180" height="210" as="geometry" />
        </mxCell>
        <mxCell id="LgZh5UOVkd5tFv0mdFSw-1" value="format()" style="rounded=1;whiteSpace=wrap;html=1;fontSize=12;glass=0;strokeWidth=1;shadow=0;" vertex="1" parent="gK3jX9xH8F0dARAaS51u-5">
          <mxGeometry x="30" y="10" width="120" height="40" as="geometry" />
        </mxCell>
        <mxCell id="gK3jX9xH8F0dARAaS51u-6" value="Data pre-process" style="text;html=1;strokeColor=none;fillColor=none;align=center;verticalAlign=middle;whiteSpace=wrap;rounded=0;" parent="WIyWlLk6GJQsqaUBKTNV-1" vertex="1">
          <mxGeometry x="270" y="30" width="120" height="30" as="geometry" />
        </mxCell>
        <mxCell id="gK3jX9xH8F0dARAaS51u-17" value="" style="swimlane;startSize=0;dashed=1;strokeWidth=3;" parent="WIyWlLk6GJQsqaUBKTNV-1" vertex="1">
          <mxGeometry x="20" y="340" width="1290" height="310" as="geometry" />
        </mxCell>
        <mxCell id="LgZh5UOVkd5tFv0mdFSw-10" value="" style="rounded=1;whiteSpace=wrap;html=1;" vertex="1" parent="gK3jX9xH8F0dARAaS51u-17">
          <mxGeometry x="20" y="30" width="280" height="220" as="geometry" />
        </mxCell>
        <mxCell id="LgZh5UOVkd5tFv0mdFSw-11" value="Feature selection" style="text;html=1;strokeColor=none;fillColor=none;align=center;verticalAlign=middle;whiteSpace=wrap;rounded=0;" vertex="1" parent="gK3jX9xH8F0dARAaS51u-17">
          <mxGeometry x="170" width="120" height="30" as="geometry" />
        </mxCell>
        <mxCell id="LgZh5UOVkd5tFv0mdFSw-12" value="" style="endArrow=none;dashed=1;html=1;rounded=0;exitX=0;exitY=0.5;exitDx=0;exitDy=0;entryX=1;entryY=0.5;entryDx=0;entryDy=0;" edge="1" parent="gK3jX9xH8F0dARAaS51u-17" source="LgZh5UOVkd5tFv0mdFSw-10" target="LgZh5UOVkd5tFv0mdFSw-10">
          <mxGeometry width="50" height="50" relative="1" as="geometry">
            <mxPoint x="340" y="70" as="sourcePoint" />
            <mxPoint x="390" y="20" as="targetPoint" />
          </mxGeometry>
        </mxCell>
        <mxCell id="gK3jX9xH8F0dARAaS51u-8" value="tsfresh.extract_features" style="rounded=1;whiteSpace=wrap;html=1;fontSize=12;glass=0;strokeWidth=1;shadow=0;" parent="gK3jX9xH8F0dARAaS51u-17" vertex="1">
          <mxGeometry x="90" y="70" width="140" height="40" as="geometry" />
        </mxCell>
        <mxCell id="LgZh5UOVkd5tFv0mdFSw-18" value="RelevantFeatureAugmenter()" style="rounded=1;whiteSpace=wrap;html=1;fontSize=12;glass=0;strokeWidth=1;shadow=0;" vertex="1" parent="gK3jX9xH8F0dARAaS51u-17">
          <mxGeometry x="75" y="150" width="170" height="40" as="geometry" />
        </mxCell>
        <mxCell id="LgZh5UOVkd5tFv0mdFSw-19" value="RandomForestClassfier()" style="rounded=1;whiteSpace=wrap;html=1;fontSize=12;glass=0;strokeWidth=1;shadow=0;" vertex="1" parent="gK3jX9xH8F0dARAaS51u-17">
          <mxGeometry x="90" y="200" width="140" height="40" as="geometry" />
        </mxCell>
        <mxCell id="LgZh5UOVkd5tFv0mdFSw-22" value="" style="shape=curlyBracket;whiteSpace=wrap;html=1;rounded=1;flipH=1;labelPosition=right;verticalLabelPosition=middle;align=left;verticalAlign=middle;" vertex="1" parent="gK3jX9xH8F0dARAaS51u-17">
          <mxGeometry x="260" y="170" width="20" height="60" as="geometry" />
        </mxCell>
        <mxCell id="LgZh5UOVkd5tFv0mdFSw-23" value="" style="rounded=1;whiteSpace=wrap;html=1;" vertex="1" parent="gK3jX9xH8F0dARAaS51u-17">
          <mxGeometry x="440" y="30" width="370" height="260" as="geometry" />
        </mxCell>
        <mxCell id="LgZh5UOVkd5tFv0mdFSw-27" value="features(k=20)" style="ellipse;whiteSpace=wrap;html=1;" vertex="1" parent="gK3jX9xH8F0dARAaS51u-17">
          <mxGeometry x="310" y="100" width="110" height="30" as="geometry" />
        </mxCell>
        <mxCell id="LgZh5UOVkd5tFv0mdFSw-28" value="" style="endArrow=classic;html=1;rounded=0;exitX=1;exitY=0.5;exitDx=0;exitDy=0;entryX=-0.004;entryY=0.423;entryDx=0;entryDy=0;entryPerimeter=0;" edge="1" parent="gK3jX9xH8F0dARAaS51u-17" source="LgZh5UOVkd5tFv0mdFSw-10" target="LgZh5UOVkd5tFv0mdFSw-23">
          <mxGeometry width="50" height="50" relative="1" as="geometry">
            <mxPoint x="340" y="70" as="sourcePoint" />
            <mxPoint x="390" y="20" as="targetPoint" />
          </mxGeometry>
        </mxCell>
        <mxCell id="LgZh5UOVkd5tFv0mdFSw-29" value="Prompt generation" style="text;html=1;strokeColor=none;fillColor=none;align=center;verticalAlign=middle;whiteSpace=wrap;rounded=0;" vertex="1" parent="gK3jX9xH8F0dARAaS51u-17">
          <mxGeometry x="600" width="120" height="30" as="geometry" />
        </mxCell>
        <mxCell id="gK3jX9xH8F0dARAaS51u-13" value="Context generate" style="rounded=1;whiteSpace=wrap;html=1;fontSize=12;glass=0;strokeWidth=1;shadow=0;" parent="gK3jX9xH8F0dARAaS51u-17" vertex="1">
          <mxGeometry x="460" y="90" width="120" height="40" as="geometry" />
        </mxCell>
        <mxCell id="gK3jX9xH8F0dARAaS51u-14" value="Query generate" style="rounded=1;whiteSpace=wrap;html=1;fontSize=12;glass=0;strokeWidth=1;shadow=0;" parent="gK3jX9xH8F0dARAaS51u-17" vertex="1">
          <mxGeometry x="460" y="222.5" width="120" height="40" as="geometry" />
        </mxCell>
        <mxCell id="gK3jX9xH8F0dARAaS51u-20" value="Background" style="whiteSpace=wrap;html=1;align=center;strokeWidth=2;" parent="gK3jX9xH8F0dARAaS51u-17" vertex="1">
          <mxGeometry x="600" y="40" width="100" height="30" as="geometry" />
        </mxCell>
        <mxCell id="gK3jX9xH8F0dARAaS51u-22" value="Feature" style="whiteSpace=wrap;html=1;align=center;strokeWidth=2;" parent="gK3jX9xH8F0dARAaS51u-17" vertex="1">
          <mxGeometry x="600" y="95" width="100" height="30" as="geometry" />
        </mxCell>
        <mxCell id="gK3jX9xH8F0dARAaS51u-32" value="Feature * 1" style="whiteSpace=wrap;html=1;align=center;strokeWidth=2;" parent="gK3jX9xH8F0dARAaS51u-17" vertex="1">
          <mxGeometry x="600" y="200" width="100" height="30" as="geometry" />
        </mxCell>
        <mxCell id="LgZh5UOVkd5tFv0mdFSw-31" value="" style="shape=curlyBracket;whiteSpace=wrap;html=1;rounded=1;labelPosition=left;verticalLabelPosition=middle;align=right;verticalAlign=middle;" vertex="1" parent="gK3jX9xH8F0dARAaS51u-17">
          <mxGeometry x="580" y="50" width="20" height="110" as="geometry" />
        </mxCell>
        <mxCell id="LgZh5UOVkd5tFv0mdFSw-32" value="Data description" style="whiteSpace=wrap;html=1;align=center;strokeWidth=2;dashed=1;" vertex="1" parent="gK3jX9xH8F0dARAaS51u-17">
          <mxGeometry x="600" y="145" width="100" height="30" as="geometry" />
        </mxCell>
        <mxCell id="LgZh5UOVkd5tFv0mdFSw-33" value="" style="strokeWidth=2;html=1;shape=mxgraph.flowchart.annotation_2;align=left;labelPosition=right;pointerEvents=1;" vertex="1" parent="gK3jX9xH8F0dARAaS51u-17">
          <mxGeometry x="580" y="212" width="20" height="58" as="geometry" />
        </mxCell>
        <mxCell id="LgZh5UOVkd5tFv0mdFSw-35" value="Data + Rule" style="whiteSpace=wrap;html=1;align=center;strokeWidth=2;dashed=1;" vertex="1" parent="gK3jX9xH8F0dARAaS51u-17">
          <mxGeometry x="600" y="250" width="100" height="30" as="geometry" />
        </mxCell>
        <mxCell id="LgZh5UOVkd5tFv0mdFSw-36" value="Description" style="whiteSpace=wrap;html=1;align=center;strokeWidth=2;" vertex="1" parent="gK3jX9xH8F0dARAaS51u-17">
          <mxGeometry x="720" y="252" width="70" height="26" as="geometry" />
        </mxCell>
        <mxCell id="LgZh5UOVkd5tFv0mdFSw-37" value="" style="endArrow=classic;html=1;rounded=0;exitX=1;exitY=0.5;exitDx=0;exitDy=0;entryX=0;entryY=0.5;entryDx=0;entryDy=0;" edge="1" parent="gK3jX9xH8F0dARAaS51u-17" source="LgZh5UOVkd5tFv0mdFSw-35" target="LgZh5UOVkd5tFv0mdFSw-36">
          <mxGeometry width="50" height="50" relative="1" as="geometry">
            <mxPoint x="340" y="-30" as="sourcePoint" />
            <mxPoint x="390" y="-80" as="targetPoint" />
          </mxGeometry>
        </mxCell>
        <mxCell id="LgZh5UOVkd5tFv0mdFSw-38" value="" style="rounded=1;whiteSpace=wrap;html=1;" vertex="1" parent="gK3jX9xH8F0dARAaS51u-17">
          <mxGeometry x="940" y="30" width="320" height="260" as="geometry" />
        </mxCell>
        <mxCell id="LgZh5UOVkd5tFv0mdFSw-39" value="" style="endArrow=classic;html=1;rounded=0;exitX=1.003;exitY=0.438;exitDx=0;exitDy=0;exitPerimeter=0;entryX=-0.005;entryY=0.438;entryDx=0;entryDy=0;entryPerimeter=0;" edge="1" parent="gK3jX9xH8F0dARAaS51u-17" source="LgZh5UOVkd5tFv0mdFSw-23" target="LgZh5UOVkd5tFv0mdFSw-38">
          <mxGeometry width="50" height="50" relative="1" as="geometry">
            <mxPoint x="807" y="144" as="sourcePoint" />
            <mxPoint x="890" y="144" as="targetPoint" />
          </mxGeometry>
        </mxCell>
        <mxCell id="LgZh5UOVkd5tFv0mdFSw-40" value="GPT answer" style="ellipse;whiteSpace=wrap;html=1;" vertex="1" parent="gK3jX9xH8F0dARAaS51u-17">
          <mxGeometry x="820" y="100" width="110" height="30" as="geometry" />
        </mxCell>
        <mxCell id="gK3jX9xH8F0dARAaS51u-55" value="GPT classify" style="rounded=1;whiteSpace=wrap;html=1;fontSize=12;glass=0;strokeWidth=1;shadow=0;" parent="WIyWlLk6GJQsqaUBKTNV-1" vertex="1">
          <mxGeometry x="690" y="680" width="120" height="40" as="geometry" />
        </mxCell>
        <mxCell id="gK3jX9xH8F0dARAaS51u-56" value="Correctness check" style="rounded=1;whiteSpace=wrap;html=1;fontSize=12;glass=0;strokeWidth=1;shadow=0;" parent="WIyWlLk6GJQsqaUBKTNV-1" vertex="1">
          <mxGeometry x="440" y="840" width="120" height="40" as="geometry" />
        </mxCell>
        <mxCell id="gK3jX9xH8F0dARAaS51u-60" value="fail" style="rounded=1;whiteSpace=wrap;html=1;fontSize=12;glass=0;strokeWidth=1;shadow=0;" parent="WIyWlLk6GJQsqaUBKTNV-1" vertex="1">
          <mxGeometry x="374" y="900" width="120" height="40" as="geometry" />
        </mxCell>
        <mxCell id="gK3jX9xH8F0dARAaS51u-61" value="Feature importance" style="rounded=1;whiteSpace=wrap;html=1;fontSize=12;glass=0;strokeWidth=1;shadow=0;" parent="WIyWlLk6GJQsqaUBKTNV-1" vertex="1">
          <mxGeometry x="510" y="900" width="120" height="40" as="geometry" />
        </mxCell>
        <mxCell id="gK3jX9xH8F0dARAaS51u-62" value="" style="curved=1;endArrow=classic;html=1;rounded=0;entryX=0.25;entryY=0;entryDx=0;entryDy=0;exitX=0;exitY=0.5;exitDx=0;exitDy=0;" parent="WIyWlLk6GJQsqaUBKTNV-1" source="gK3jX9xH8F0dARAaS51u-56" target="gK3jX9xH8F0dARAaS51u-60" edge="1">
          <mxGeometry width="50" height="50" relative="1" as="geometry">
            <mxPoint x="410" y="700" as="sourcePoint" />
            <mxPoint x="460" y="650" as="targetPoint" />
            <Array as="points">
              <mxPoint x="434" y="850" />
              <mxPoint x="420" y="830" />
              <mxPoint x="390" y="840" />
              <mxPoint x="360" y="870" />
              <mxPoint x="380" y="890" />
            </Array>
          </mxGeometry>
        </mxCell>
        <mxCell id="gK3jX9xH8F0dARAaS51u-63" value="" style="curved=1;endArrow=classic;html=1;rounded=0;entryX=0.75;entryY=0;entryDx=0;entryDy=0;exitX=1;exitY=0.5;exitDx=0;exitDy=0;" parent="WIyWlLk6GJQsqaUBKTNV-1" source="gK3jX9xH8F0dARAaS51u-56" target="gK3jX9xH8F0dARAaS51u-61" edge="1">
          <mxGeometry width="50" height="50" relative="1" as="geometry">
            <mxPoint x="560" y="865" as="sourcePoint" />
            <mxPoint x="524" y="905" as="targetPoint" />
            <Array as="points">
              <mxPoint x="554" y="855" />
              <mxPoint x="580" y="840" />
              <mxPoint x="590" y="840" />
              <mxPoint x="640" y="860" />
              <mxPoint x="610" y="880" />
            </Array>
          </mxGeometry>
        </mxCell>
        <mxCell id="gK3jX9xH8F0dARAaS51u-64" value="false" style="text;html=1;strokeColor=none;fillColor=none;align=center;verticalAlign=middle;whiteSpace=wrap;rounded=0;" parent="WIyWlLk6GJQsqaUBKTNV-1" vertex="1">
          <mxGeometry x="330" y="820" width="60" height="20" as="geometry" />
        </mxCell>
        <mxCell id="gK3jX9xH8F0dARAaS51u-67" value="true" style="text;html=1;strokeColor=none;fillColor=none;align=center;verticalAlign=middle;whiteSpace=wrap;rounded=0;" parent="WIyWlLk6GJQsqaUBKTNV-1" vertex="1">
          <mxGeometry x="580" y="820" width="60" height="20" as="geometry" />
        </mxCell>
        <mxCell id="gK3jX9xH8F0dARAaS51u-68" value="Feature" style="whiteSpace=wrap;html=1;align=center;strokeWidth=2;" parent="WIyWlLk6GJQsqaUBKTNV-1" vertex="1">
          <mxGeometry x="660" y="905" width="100" height="30" as="geometry" />
        </mxCell>
        <mxCell id="gK3jX9xH8F0dARAaS51u-69" value="" style="endArrow=none;html=1;rounded=0;exitX=1;exitY=0.5;exitDx=0;exitDy=0;entryX=0;entryY=0.5;entryDx=0;entryDy=0;" parent="WIyWlLk6GJQsqaUBKTNV-1" source="gK3jX9xH8F0dARAaS51u-61" target="gK3jX9xH8F0dARAaS51u-68" edge="1">
          <mxGeometry width="50" height="50" relative="1" as="geometry">
            <mxPoint x="610" y="890" as="sourcePoint" />
            <mxPoint x="660" y="840" as="targetPoint" />
          </mxGeometry>
        </mxCell>
        <mxCell id="gK3jX9xH8F0dARAaS51u-72" value="Related knowledge" style="rounded=1;whiteSpace=wrap;html=1;fontSize=12;glass=0;strokeWidth=3;shadow=0;dashed=1;" parent="WIyWlLk6GJQsqaUBKTNV-1" vertex="1">
          <mxGeometry x="510" y="1040" width="120" height="40" as="geometry" />
        </mxCell>
        <mxCell id="gK3jX9xH8F0dARAaS51u-73" value="" style="endArrow=classic;html=1;rounded=0;exitX=0.5;exitY=1;exitDx=0;exitDy=0;" parent="WIyWlLk6GJQsqaUBKTNV-1" source="gK3jX9xH8F0dARAaS51u-61" edge="1">
          <mxGeometry width="50" height="50" relative="1" as="geometry">
            <mxPoint x="590" y="890" as="sourcePoint" />
            <mxPoint x="570" y="970" as="targetPoint" />
          </mxGeometry>
        </mxCell>
        <mxCell id="gK3jX9xH8F0dARAaS51u-74" value="Explanation" style="rounded=1;whiteSpace=wrap;html=1;fontSize=12;glass=0;strokeWidth=1;shadow=0;" parent="WIyWlLk6GJQsqaUBKTNV-1" vertex="1">
          <mxGeometry x="510" y="970" width="120" height="40" as="geometry" />
        </mxCell>
        <mxCell id="gK3jX9xH8F0dARAaS51u-75" value="" style="endArrow=classic;html=1;rounded=0;exitX=0.5;exitY=1;exitDx=0;exitDy=0;" parent="WIyWlLk6GJQsqaUBKTNV-1" edge="1">
          <mxGeometry width="50" height="50" relative="1" as="geometry">
            <mxPoint x="570" y="1009" as="sourcePoint" />
            <mxPoint x="570" y="1039" as="targetPoint" />
          </mxGeometry>
        </mxCell>
        <mxCell id="gK3jX9xH8F0dARAaS51u-76" value="Check manuelly" style="rounded=1;whiteSpace=wrap;html=1;fontSize=12;glass=0;strokeWidth=1;shadow=0;" parent="WIyWlLk6GJQsqaUBKTNV-1" vertex="1">
          <mxGeometry x="680" y="970" width="120" height="40" as="geometry" />
        </mxCell>
        <mxCell id="gK3jX9xH8F0dARAaS51u-77" value="" style="endArrow=classic;html=1;rounded=0;entryX=1;entryY=0.5;entryDx=0;entryDy=0;exitX=0;exitY=0.5;exitDx=0;exitDy=0;" parent="WIyWlLk6GJQsqaUBKTNV-1" source="gK3jX9xH8F0dARAaS51u-76" target="gK3jX9xH8F0dARAaS51u-74" edge="1">
          <mxGeometry width="50" height="50" relative="1" as="geometry">
            <mxPoint x="590" y="890" as="sourcePoint" />
            <mxPoint x="640" y="840" as="targetPoint" />
          </mxGeometry>
        </mxCell>
        <mxCell id="LgZh5UOVkd5tFv0mdFSw-3" value="" style="edgeStyle=orthogonalEdgeStyle;rounded=0;orthogonalLoop=1;jettySize=auto;html=1;" edge="1" parent="WIyWlLk6GJQsqaUBKTNV-1">
          <mxGeometry relative="1" as="geometry">
            <mxPoint x="289" y="112" as="sourcePoint" />
            <mxPoint x="289" y="142" as="targetPoint" />
          </mxGeometry>
        </mxCell>
        <mxCell id="LgZh5UOVkd5tFv0mdFSw-5" value="" style="endArrow=classic;html=1;rounded=0;exitX=-0.006;exitY=0.905;exitDx=0;exitDy=0;entryX=0.189;entryY=-0.014;entryDx=0;entryDy=0;entryPerimeter=0;exitPerimeter=0;" edge="1" parent="WIyWlLk6GJQsqaUBKTNV-1" source="gK3jX9xH8F0dARAaS51u-5" target="LgZh5UOVkd5tFv0mdFSw-10">
          <mxGeometry width="50" height="50" relative="1" as="geometry">
            <mxPoint x="700" y="410" as="sourcePoint" />
            <mxPoint x="750" y="360" as="targetPoint" />
            <Array as="points">
              <mxPoint x="93" y="250" />
            </Array>
          </mxGeometry>
        </mxCell>
        <mxCell id="gK3jX9xH8F0dARAaS51u-34" value="Prompt execution" style="text;html=1;strokeColor=none;fillColor=none;align=center;verticalAlign=middle;whiteSpace=wrap;rounded=0;" parent="WIyWlLk6GJQsqaUBKTNV-1" vertex="1">
          <mxGeometry x="950" y="300" width="120" height="30" as="geometry" />
        </mxCell>
        <mxCell id="LgZh5UOVkd5tFv0mdFSw-24" value="original dataset" style="ellipse;whiteSpace=wrap;html=1;" vertex="1" parent="WIyWlLk6GJQsqaUBKTNV-1">
          <mxGeometry x="130" y="30" width="110" height="30" as="geometry" />
        </mxCell>
        <mxCell id="LgZh5UOVkd5tFv0mdFSw-26" value="train+test dataset(X,y)" style="ellipse;whiteSpace=wrap;html=1;" vertex="1" parent="WIyWlLk6GJQsqaUBKTNV-1">
          <mxGeometry x="12.5" y="280" width="155" height="30" as="geometry" />
        </mxCell>
        <mxCell id="LgZh5UOVkd5tFv0mdFSw-41" value="" style="endArrow=classic;html=1;rounded=0;exitX=1.011;exitY=0.91;exitDx=0;exitDy=0;exitPerimeter=0;entryX=0.5;entryY=0;entryDx=0;entryDy=0;" edge="1" parent="WIyWlLk6GJQsqaUBKTNV-1" source="gK3jX9xH8F0dARAaS51u-5" target="gK3jX9xH8F0dARAaS51u-13">
          <mxGeometry width="50" height="50" relative="1" as="geometry">
            <mxPoint x="650" y="370" as="sourcePoint" />
            <mxPoint x="700" y="320" as="targetPoint" />
            <Array as="points">
              <mxPoint x="540" y="250" />
            </Array>
          </mxGeometry>
        </mxCell>
      </root>
    </mxGraphModel>
  </diagram>
</mxfile>
